<svg version="1.2" xmlns="http://www.w3.org/2000/svg" viewBox="0 0 24 24" width="24" height="24">
	<title>editor</title>
	<style>
		.s0 { fill: #ffffff } 
	</style>
	<path id="Shape 1" fill-rule="evenodd" class="s0" d="m17.7 1v1.6h-0.1c-0.3 0-0.7 0.4-0.7 0.8 0 0.5 0.4 0.9 0.7 0.9h0.1v8.1c-0.4 0-0.7 0.3-0.7 0.8 0 0.4 0.3 0.8 0.7 0.8h0.1c0 2.1-2.1 3.8-4.8 4.2l-0.1 3.7h4v2.2h-9.7v-2.2h3.9v-3.7c-2.7-0.3-4.9-2.1-4.9-4.2h0.3c0.4 0 0.7-0.4 0.7-0.8 0-0.5-0.3-0.8-0.7-0.8h-0.2l-0.1-8.1h0.3c0.4 0 0.7-0.4 0.7-0.8 0-0.5-0.3-0.8-0.7-0.8h-0.3v-1.7zm0.1 12.6q0 0.2 0 0.4h1.3c1.1 0 2.1-1.1 2.1-2.4v-6.5c0-1.4-1-2.4-2.1-2.4h-1.4v1.6h1.4c0.4 0 0.7 0.3 0.7 0.8v6.5c0 0.4-0.3 0.8-0.7 0.8h-1.3zm-11.6 0.4h-1.1c-1.1 0-2.1-1.1-2.1-2.4v-6.5c0-1.3 1-2.4 2.1-2.4h1.1l0.1 1.6h-1.2c-0.4 0-0.7 0.4-0.7 0.8v6.5c0 0.4 0.3 0.8 0.7 0.8h1.2v1.2q-0.1 0.2-0.1 0.4z"/>
</svg>